<svg width="213" height="37" viewBox="0 0 213 37" fill="none" xmlns="http://www.w3.org/2000/svg">
<path d="M17.9879 36.6957C8.0586 36.6957 -5.38088e-10 28.6371 -3.46706e-10 18.7078C-1.55324e-10 8.77844 8.0586 0.719849 17.9879 0.719849C27.9173 0.719849 35.9759 8.77844 35.9759 18.7078C35.9759 28.6371 27.9173 36.6957 17.9879 36.6957Z" fill="#4C7FF7"/>
<path fill-rule="evenodd" clip-rule="evenodd" d="M22.5775 20.5972C22.9283 20.3341 23.1914 20.6557 23.4545 20.7726C24.6239 21.2404 25.7933 21.5912 27.0504 21.2404C27.3427 21.1527 27.6058 21.0357 27.8689 20.9188C28.1905 20.7434 28.629 20.5095 28.5705 20.1002C28.5121 19.7494 28.0443 19.8371 27.7227 19.7494C26.7872 19.4863 25.8517 19.2232 24.9162 18.9893C24.7116 18.9308 24.5069 18.9016 24.4485 18.6677C27.0796 18.1707 28.3367 16.9137 28.5121 14.6041C28.5121 14.5457 28.5413 14.4872 28.5413 14.4287C28.4828 13.961 28.629 13.3178 28.1905 13.1424C27.6935 12.9378 27.5473 13.6102 27.3135 13.9317C25.6471 16.0659 23.6299 17.8199 21.3789 19.2816C20.7942 19.6617 20.7357 20.0125 20.9111 20.6264C21.3789 22.1759 21.7589 23.7253 22.1682 25.304C22.2267 25.5378 22.3728 25.8302 22.0805 26.0348C21.7589 26.2395 21.5835 25.9471 21.4373 25.7717C20.3556 24.6023 19.3324 23.4037 18.5723 21.9712C17.9876 20.8895 18.0754 20.5972 19.157 20.0125C19.8294 19.6617 19.9756 19.3109 19.7417 18.58C19.274 17.2937 18.9524 15.9489 18.5431 14.6334C18.4554 14.3118 18.3969 13.844 17.9584 13.8733C17.6076 13.9025 17.5491 14.3118 17.4322 14.6334C16.9937 16.0366 16.6136 17.4399 16.1459 18.8431C15.9412 19.3986 16.1166 19.6617 16.6136 19.954C17.8999 20.6849 17.9876 21.0065 17.1983 22.2928C16.4382 23.5791 15.4735 24.7485 14.4503 25.8302C14.3041 26.0056 14.1579 26.2395 13.8656 26.0933C13.6025 25.9471 13.7194 25.684 13.7486 25.4501C14.041 23.7253 14.5964 22.0882 15.0642 20.4218C15.2104 19.954 15.1227 19.6909 14.7134 19.4278C12.2284 17.7907 10.0066 15.8904 8.28179 13.464C8.16485 13.2886 8.01868 13.0547 7.81403 13.1132C7.52169 13.1716 7.49245 13.5224 7.43398 13.7563C7.0247 15.6858 8.36949 17.9076 10.299 18.4631C10.679 18.58 11.0883 18.6385 11.6438 18.7554C10.6205 19.3109 9.56811 19.4278 8.57413 19.7202C8.19408 19.8079 7.46322 19.6325 7.46322 20.1879C7.46322 20.7141 8.10638 20.9772 8.60337 21.1527C9.77275 21.5912 10.9129 21.3865 12.053 20.9772C12.4916 20.8311 12.9008 20.6264 13.4271 20.3926C12.8716 21.4158 12.1115 22.1174 11.3806 22.936C12.3162 23.1991 13.1055 22.8775 14.0702 22.7898C13.2809 23.4914 12.5208 23.7838 11.6438 23.6961C10.7375 23.5791 10.5621 23.1114 11.0883 22.3805C11.176 22.2343 11.3806 22.1466 11.3222 21.8835C10.4451 21.942 9.53887 22.0882 8.66184 21.7958C7.98944 21.5619 7.40475 21.2696 6.99547 20.6849C6.52771 20.0417 6.67389 19.574 7.43398 19.3401C8.07714 19.1355 8.7203 19.0185 9.3927 18.8724C9.3927 18.5215 9.10035 18.5216 8.92495 18.4046C7.28781 17.206 6.70312 15.5689 6.90776 13.6102C6.96623 13.1132 7.11241 12.5869 7.6971 12.4408C8.25255 12.2946 8.5449 12.7331 8.80801 13.1132C10.4159 15.4227 12.55 17.1768 14.8303 18.7554C15.3565 19.1355 15.5319 18.9893 15.6781 18.4338C16.0582 17.0598 16.4967 15.6858 16.906 14.3118C17.0814 13.7563 17.3153 13.2009 17.9876 13.2301C18.66 13.2301 18.8939 13.8148 19.0693 14.3702C19.5078 15.7443 19.9464 17.1183 20.2972 18.5215C20.4726 19.1939 20.6772 19.1355 21.145 18.8139C23.4253 17.2352 25.5302 15.4519 27.1673 13.1716C27.4304 12.7916 27.7227 12.3531 28.2782 12.4992C28.8044 12.6454 28.9798 13.1132 29.0383 13.5809C29.3306 15.5104 28.6875 17.1183 27.1965 18.3461C26.9919 18.4923 26.7288 18.5508 26.5534 18.9016C27.1673 19.0478 27.752 19.1647 28.3367 19.3401C29.3599 19.6325 29.5353 20.2172 28.7752 20.9772C27.8689 21.8835 26.7288 22.0589 25.5302 22.0005C25.267 21.9712 24.9747 21.8543 24.6824 21.9712C24.6824 22.0589 24.6531 22.1174 24.6824 22.1466C24.887 22.4974 25.4717 22.7606 25.1501 23.2575C24.7993 23.813 24.1854 23.7838 23.6299 23.6961C23.016 23.6084 22.4898 23.2868 21.8466 22.8775C22.8113 22.819 23.6591 23.2575 24.5654 22.9944C23.8638 22.1466 23.2206 21.3573 22.5775 20.5972ZM15.7658 20.1587C15.3565 21.5619 14.9473 22.9652 14.5672 24.3685C14.918 24.4854 15.035 24.2807 15.1811 24.0761C15.6197 23.4914 16.0874 22.9067 16.4967 22.322C17.403 20.948 17.3445 20.8603 15.7658 20.1587ZM21.4373 24.6608C21.0573 23.2575 20.648 21.8543 20.2679 20.451C20.2387 20.3633 20.0925 20.1879 20.0633 20.1879C19.6833 20.3633 19.3032 20.5387 18.9816 20.7726C18.7185 20.9772 18.8939 21.2696 19.0109 21.5035C19.6248 22.7021 20.5018 23.6961 21.4373 24.6608ZM24.4777 21.8251C24.4777 21.8543 24.4485 21.8543 24.4485 21.8835C24.4485 21.9128 24.4777 21.9128 24.5069 21.942C24.5069 21.9128 24.5362 21.8835 24.5362 21.8543C24.5069 21.8251 24.4777 21.8251 24.4777 21.8251Z" fill="white"/>
<path d="M55.8547 12.2469C57.5985 12.2469 58.8278 12.79 59.9999 13.8478C60.1428 13.9907 60.1428 14.1908 60.0284 14.3338L58.9707 15.4201C58.8564 15.563 58.6848 15.563 58.5419 15.4201C57.8272 14.7912 56.8552 14.4195 55.9118 14.4195C53.7106 14.4195 52.0811 16.2491 52.0811 18.4218C52.0811 20.5658 53.7392 22.3954 55.9118 22.3954C56.941 22.3954 57.8272 21.9952 58.5419 21.4235C58.6848 21.3091 58.8564 21.3091 58.9707 21.4235L60.0284 22.5098C60.1714 22.6241 60.1428 22.8528 59.9999 22.9672C58.8278 24.1107 57.3698 24.6253 55.8261 24.6253C52.3956 24.6253 49.6226 21.9095 49.6226 18.479C49.6226 15.0485 52.4242 12.2469 55.8547 12.2469Z" fill="#4C7FF7"/>
<path d="M62.2869 12.7313C62.2869 12.5598 62.4298 12.4169 62.6013 12.4169L64.2022 12.4169C64.3737 12.4169 64.5167 12.5598 64.5167 12.7313L64.5167 24.0806C64.5167 24.2521 64.3737 24.395 64.2022 24.395L62.6013 24.395C62.4298 24.395 62.2869 24.2521 62.2869 24.0806L62.2869 12.7313Z" fill="#4C7FF7"/>
<path d="M67.6612 12.7313C67.6612 12.5598 67.8042 12.4169 67.9757 12.4169L72.8927 12.4169C74.951 12.4169 76.6377 14.0749 76.6377 16.1047C76.6377 17.677 75.58 18.9634 74.0934 19.5637L76.4376 23.909C76.5519 24.1377 76.4376 24.395 76.1517 24.395L74.3507 24.395C74.2078 24.395 74.122 24.3093 74.0648 24.2521L71.7778 19.7067L69.8625 19.7067L69.8625 24.0806C69.8625 24.2521 69.7195 24.395 69.548 24.395L67.9757 24.395C67.7756 24.395 67.6612 24.2521 67.6612 24.0806L67.6612 12.7313V12.7313ZM72.6926 17.8771C73.6074 17.8771 74.3793 17.0766 74.3793 16.1332C74.3793 15.2184 73.5788 14.4752 72.6926 14.4752L69.891 14.4752L69.891 17.8771L72.6926 17.8771Z" fill="#4C7FF7"/>
<path d="M84.385 12.2454C86.1288 12.2454 87.3581 12.7886 88.5301 13.8463C88.6731 13.9892 88.6731 14.1893 88.5587 14.3323L87.501 15.4186C87.3866 15.5615 87.2151 15.5615 87.0722 15.4186C86.3575 14.7897 85.3855 14.418 84.4421 14.418C82.2409 14.418 80.6114 16.2476 80.6114 18.4203C80.6114 20.5643 82.2695 22.3939 84.4421 22.3939C85.4713 22.3939 86.3575 21.9937 87.0722 21.422C87.2151 21.3076 87.3866 21.3076 87.501 21.422L88.5587 22.5083C88.7017 22.6226 88.6731 22.8513 88.5301 22.9657C87.3581 24.1092 85.9001 24.6238 84.3564 24.6238C80.9259 24.6238 78.1529 21.908 78.1529 18.4775C78.1529 15.047 80.9545 12.2454 84.385 12.2454Z" fill="#4C7FF7"/>
<path d="M90.8171 12.7313C90.8171 12.5598 90.96 12.4169 91.1316 12.4169L92.7039 12.4169C92.8754 12.4169 93.0183 12.5598 93.0183 12.7313L93.0183 22.3653L97.3922 22.3653C97.5923 22.3653 97.7067 22.5083 97.7067 22.6798L97.7067 24.0806C97.7067 24.2521 97.5637 24.395 97.3922 24.395L91.103 24.395C90.9029 24.395 90.7885 24.2521 90.7885 24.0806L90.7885 12.7313L90.8171 12.7313Z" fill="#4C7FF7"/>
<path d="M99.4792 12.7313C99.4792 12.5598 99.6221 12.4169 99.7936 12.4169L106.769 12.4169C106.969 12.4169 107.083 12.5598 107.083 12.7313L107.083 14.1321C107.083 14.3036 106.941 14.4466 106.769 14.4466L101.68 14.4466L101.68 17.2767L105.911 17.2767C106.083 17.2767 106.226 17.4197 106.226 17.5912L106.226 19.0206C106.226 19.2207 106.083 19.335 105.911 19.335L101.68 19.335L101.68 22.3367L106.769 22.3367C106.969 22.3367 107.083 22.4797 107.083 22.6512L107.083 24.052C107.083 24.2235 106.941 24.3664 106.769 24.3664L99.7936 24.3664C99.5935 24.3664 99.4792 24.2235 99.4792 24.052L99.4792 12.7313Z" fill="#4C7FF7"/>
<path d="M108.856 22.737L109.485 21.6793C109.628 21.4506 109.914 21.4506 110.057 21.5649C110.142 21.6221 111.543 22.6226 112.658 22.6226C113.544 22.6226 114.23 22.0509 114.23 21.3076C114.23 20.4214 113.487 19.8211 112.058 19.2493C110.457 18.5918 108.827 17.5627 108.827 15.533C108.827 14.0178 109.971 12.2454 112.687 12.2454C114.43 12.2454 115.774 13.1316 116.117 13.3889C116.289 13.5032 116.346 13.7891 116.231 13.9606L115.574 14.9326C115.431 15.1327 115.174 15.2757 114.974 15.1327C114.831 15.047 113.544 14.1893 112.601 14.1893C111.629 14.1893 111.086 14.8469 111.086 15.39C111.086 16.1905 111.715 16.7336 113.115 17.3054C114.773 17.9629 116.689 18.9635 116.689 21.1933C116.689 22.9657 115.174 24.5952 112.744 24.5952C110.571 24.5952 109.313 23.5946 108.97 23.2516C108.77 23.1086 108.684 23.0229 108.856 22.737Z" fill="#4C7FF7"/>
<path d="M128.095 12.2454C131.526 12.2454 134.27 15.0184 134.27 18.4489C134.27 21.8794 131.526 24.5952 128.095 24.5952C124.665 24.5952 121.949 21.8794 121.949 18.4489C121.949 15.0184 124.665 12.2454 128.095 12.2454ZM128.095 23.3945C130.811 23.3945 133.069 21.1647 133.069 18.4489C133.069 15.7331 130.811 13.4461 128.095 13.4461C125.379 13.4461 123.15 15.7045 123.15 18.4489C123.15 21.1647 125.379 23.3945 128.095 23.3945Z" fill="#728099"/>
<path d="M136.9 12.7313C136.9 12.5598 137.043 12.4169 137.215 12.4169L143.961 12.4169C144.161 12.4169 144.276 12.5598 144.276 12.7313L144.276 13.2173C144.276 13.3888 144.133 13.5318 143.961 13.5318L138.187 13.5318L138.187 18.2201L143.104 18.2201C143.275 18.2201 143.418 18.3631 143.418 18.5346L143.418 19.0206C143.418 19.1921 143.275 19.335 143.104 19.335L138.187 19.335L138.187 24.0234C138.187 24.1949 138.044 24.3379 137.872 24.3379L137.243 24.3379C137.043 24.3379 136.929 24.1949 136.929 24.0234L136.929 12.7313L136.9 12.7313Z" fill="#728099"/>
<path d="M148.707 23.9661L154.053 12.4168C154.11 12.3024 154.196 12.2166 154.339 12.2166L154.51 12.2166C154.682 12.2166 154.739 12.3024 154.796 12.4168L160.085 23.9661C160.199 24.1948 160.056 24.4235 159.799 24.4235L158.312 24.4235C158.055 24.4235 157.941 24.3092 157.826 24.0805L156.997 22.2223L151.823 22.2223L150.994 24.0805C150.937 24.252 150.765 24.4235 150.508 24.4235L149.021 24.4235C148.735 24.4235 148.592 24.1948 148.707 23.9661ZM156.111 20.3355L154.396 16.5619L154.339 16.5619L152.68 20.3355L156.111 20.3355Z" fill="#4C7FF7"/>
<path d="M161.628 12.5599C161.628 12.3883 161.771 12.2454 161.943 12.2454L162.372 12.2454L169.518 19.8211L169.547 19.8211L169.547 12.7314C169.547 12.5599 169.69 12.4169 169.862 12.4169L171.434 12.4169C171.605 12.4169 171.748 12.5599 171.748 12.7314L171.748 24.2807C171.748 24.4522 171.605 24.5952 171.434 24.5952L171.034 24.5952L163.858 16.7336L163.83 16.7336L163.83 24.1092C163.83 24.2807 163.687 24.4237 163.515 24.4237L161.943 24.4237C161.771 24.4237 161.628 24.2807 161.628 24.1092L161.628 12.5599Z" fill="#4C7FF7"/>
<path d="M180.21 12.2454C181.754 12.2454 183.24 12.8457 184.384 13.8463C184.527 13.9892 184.527 14.1893 184.412 14.3323L183.355 15.4472C183.212 15.5901 183.069 15.5901 182.897 15.4472C182.154 14.7897 181.239 14.4466 180.296 14.4466C178.152 14.4466 176.465 16.2762 176.465 18.4203C176.465 20.5358 178.152 22.3368 180.324 22.3368C181.296 22.3368 182.011 22.0509 182.354 21.908L182.354 20.45L180.982 20.45C180.782 20.45 180.668 20.3071 180.668 20.1355L180.668 18.7919C180.668 18.5918 180.81 18.4775 180.982 18.4775L184.27 18.4775C184.441 18.4775 184.584 18.6204 184.584 18.7919L184.584 23.1944C184.584 23.3373 184.527 23.4231 184.441 23.4803C184.441 23.4803 182.669 24.5952 180.182 24.5952C176.78 24.5952 174.035 21.8794 174.035 18.4489C174.035 15.0184 176.78 12.2454 180.21 12.2454Z" fill="#4C7FF7"/>
<path d="M187.1 12.7313C187.1 12.5598 187.243 12.4169 187.414 12.4169L194.418 12.4169C194.618 12.4169 194.733 12.5598 194.733 12.7313L194.733 14.1321C194.733 14.3036 194.59 14.4466 194.418 14.4466L189.33 14.4466L189.33 17.2767L193.561 17.2767C193.732 17.2767 193.875 17.4197 193.875 17.5912L193.875 19.0206C193.875 19.2207 193.732 19.335 193.561 19.335L189.33 19.335L189.33 22.3367L194.418 22.3367C194.618 22.3367 194.733 22.4797 194.733 22.6512L194.733 24.052C194.733 24.2235 194.59 24.3664 194.418 24.3664L187.443 24.3664C187.243 24.3664 187.128 24.2235 187.128 24.052L187.128 12.7313L187.1 12.7313Z" fill="#4C7FF7"/>
<path d="M197.191 12.7313C197.191 12.5598 197.334 12.4169 197.506 12.4169L199.078 12.4169C199.249 12.4169 199.392 12.5598 199.392 12.7313L199.392 22.3653L203.766 22.3653C203.966 22.3653 204.081 22.5083 204.081 22.6798L204.081 24.0806C204.081 24.2521 203.938 24.395 203.766 24.395L197.477 24.395C197.277 24.395 197.163 24.2521 197.163 24.0806L197.163 12.7313L197.191 12.7313Z" fill="#4C7FF7"/>
<path d="M205.167 22.737L205.796 21.6793C205.939 21.4506 206.225 21.4506 206.368 21.5649C206.453 21.6221 207.854 22.6226 208.969 22.6226C209.855 22.6226 210.541 22.0509 210.541 21.3076C210.541 20.4214 209.798 19.8211 208.369 19.2493C206.768 18.5918 205.138 17.5627 205.138 15.533C205.138 14.0178 206.282 12.2454 208.998 12.2454C210.742 12.2454 212.085 13.1316 212.428 13.3889C212.6 13.5032 212.657 13.7891 212.543 13.9606L211.885 14.9326C211.742 15.1327 211.485 15.2757 211.285 15.1327C211.142 15.047 209.855 14.1893 208.912 14.1893C207.94 14.1893 207.397 14.8469 207.397 15.39C207.397 16.1905 208.026 16.7336 209.427 17.3054C211.085 17.9629 213 18.9635 213 21.1933C213 22.9657 211.485 24.5952 209.055 24.5952C206.882 24.5952 205.624 23.5946 205.281 23.2516C205.081 23.1086 204.995 23.0229 205.167 22.737Z" fill="#4C7FF7"/>
</svg>
